HIERARCHY
ROOT Pelvis
{
	OFFSET 0.000000 0.941512 0.000000
	CHANNELS 6 Xposition Yposition Zposition Zrotation Yrotation Xrotation 
	JOINT Pelvis_L_Hip
	{
		OFFSET 0.000000 0.000000 0.000000
		CHANNELS 3 Zrotation Yrotation Xrotation
		JOINT L_Hip
		{
			OFFSET 0.062321 -0.080322 -0.016990
			CHANNELS 3 Zrotation Yrotation Xrotation
			JOINT L_Knee
			{
				OFFSET 0.093051 -0.381305 -0.029784
				CHANNELS 3 Zrotation Yrotation Xrotation
				JOINT L_Ankle
				{
					OFFSET -0.010371 -0.431000 -0.033614
					CHANNELS 3 Zrotation Yrotation Xrotation
					End Site #name: L_Foot
					{
						OFFSET 0.069299 -0.038670 0.119418
					}
				}
			}
		}
	}
	JOINT Pelvis_R_Hip
	{
		OFFSET 0.000000 0.000000 0.000000
		CHANNELS 3 Zrotation Yrotation Xrotation
		JOINT R_Hip
		{
			OFFSET -0.055334 -0.094904 -0.002373
			CHANNELS 3 Zrotation Yrotation Xrotation
			JOINT R_Knee
			{
				OFFSET -0.064207 -0.384370 -0.019592
				CHANNELS 3 Zrotation Yrotation Xrotation
				JOINT R_Ankle
				{
					OFFSET 0.025418 -0.419734 -0.065953
					CHANNELS 3 Zrotation Yrotation Xrotation
					End Site #name: R_Foot
					{
						OFFSET -0.057233 -0.039888 0.132134
					}
				}
			}
		}
	}
	JOINT Pelvis_Spine1
	{
		OFFSET 0.000000 0.000000 0.000000
		CHANNELS 3 Zrotation Yrotation Xrotation
		JOINT Spine1
		{
			OFFSET -0.005562 0.124093 -0.043360
			CHANNELS 3 Zrotation Yrotation Xrotation
			JOINT Spine2
			{
				OFFSET 0.012244 0.139499 0.029894
				CHANNELS 3 Zrotation Yrotation Xrotation
				JOINT Spine3
				{
					OFFSET -0.002556 0.056561 0.009225
					CHANNELS 3 Zrotation Yrotation Xrotation
					JOINT Spine3_Neck
					{
						OFFSET 0.000000 0.000000 0.000000
						CHANNELS 3 Zrotation Yrotation Xrotation
						JOINT Neck
						{
							OFFSET -0.005205 0.217920 -0.024551
							CHANNELS 3 Zrotation Yrotation Xrotation
							End Site #name: Head
							{
								OFFSET 0.002365 0.091850 0.046637
							}
						}
					}
					JOINT Spine3_L_Collar
					{
						OFFSET 0.000000 0.000000 0.000000
						CHANNELS 3 Zrotation Yrotation Xrotation
						JOINT L_Collar
						{
							OFFSET 0.072225 0.116603 -0.009480
							CHANNELS 3 Zrotation Yrotation Xrotation
							JOINT L_Shoulder
							{
								OFFSET 0.115937 -0.058643 -0.021018
								CHANNELS 3 Zrotation Yrotation Xrotation
								JOINT L_Elbow
								{
									OFFSET 0.021994 -0.254722 -0.024492
									CHANNELS 3 Zrotation Yrotation Xrotation
									End Site #name: L_Wrist
									{
										OFFSET 0.048810 -0.240214 0.103329
									}
								}
							}
						}
					}
					JOINT Spine3_R_Collar
					{
						OFFSET 0.000000 0.000000 0.000000
						CHANNELS 3 Zrotation Yrotation Xrotation
						JOINT R_Collar
						{
							OFFSET -0.073372 0.120704 -0.024611
							CHANNELS 3 Zrotation Yrotation Xrotation
							JOINT R_Shoulder
							{
								OFFSET -0.108089 -0.054969 -0.020504
								CHANNELS 3 Zrotation Yrotation Xrotation
								JOINT R_Elbow
								{
									OFFSET -0.033684 -0.260739 0.009889
									CHANNELS 3 Zrotation Yrotation Xrotation
									End Site #name: R_Wrist
									{
										OFFSET -0.067980 -0.232763 0.118463
									}
								}
							}
						}
					}
				}
			}
		}
	}
}
MOTION
Frames: 8
Frame Time: 0.041667
-0.412876 0.879910 1.558959 -11.347676 2.779941 15.759966 0.000000 0.000000 0.000000 15.446756 -7.327492 -57.520142 -2.047391 -0.277277 50.163807 10.311660 13.578275 -11.943409 0.000000 0.000000 0.000000 17.822888 14.196619 -46.012894 -3.303479 4.769517 43.569368 -4.837089 -2.819501 -10.012106 0.000000 0.000000 0.000000 -11.985196 3.374617 53.648507 1.629896 -0.516837 -8.212371 12.634807 10.512088 12.344008 0.000000 0.000000 0.000000 -10.519512 5.565521 2.783023 0.000000 0.000000 0.000000 31.959146 -11.637352 -1.753851 -29.403317 -3.290283 -19.679866 -10.844262 -31.551030 -58.713992 0.000000 0.000000 0.000000 -45.717897 25.360318 -23.569221 34.547155 1.598319 -0.910545 -9.734094 10.493985 -56.908606 
-0.410193 0.877635 1.603279 -10.993192 3.139530 15.474806 0.000000 0.000000 0.000000 14.849583 -7.689760 -57.504411 -0.311871 -0.845542 34.963660 7.414026 8.180398 -9.034992 0.000000 0.000000 0.000000 17.948804 13.291680 -43.512931 -2.252593 4.254946 45.395220 -6.006187 -4.132317 -12.358400 0.000000 0.000000 0.000000 -11.289558 2.662469 54.209564 1.209187 -0.474973 -8.100518 12.228775 10.307326 11.572897 0.000000 0.000000 0.000000 -10.694857 5.666966 3.080298 0.000000 0.000000 0.000000 31.216312 -11.592595 -1.877810 -29.399500 -2.984744 -18.626381 -10.925786 -30.962266 -57.727669 0.000000 0.000000 0.000000 -45.975328 25.892816 -24.230246 35.270515 1.576498 -0.731289 -9.906747 9.451215 -55.001744 
-0.407621 0.865380 1.645132 -10.154956 3.106661 16.468519 0.000000 0.000000 0.000000 13.708523 -8.331275 -58.709823 -0.099188 -0.746916 28.873358 5.228101 4.343738 -6.953696 0.000000 0.000000 0.000000 16.388570 13.013542 -44.329792 0.837628 2.647932 50.189313 -7.353721 -6.986476 -14.439918 0.000000 0.000000 0.000000 -10.898937 2.384352 52.110957 0.788822 -0.373835 -6.425054 11.597569 9.715952 10.623246 0.000000 0.000000 0.000000 -10.319016 5.486994 3.482257 0.000000 0.000000 0.000000 31.504316 -12.678324 -3.012250 -29.239168 -2.883177 -18.216465 -10.206288 -29.569114 -57.058115 0.000000 0.000000 0.000000 -45.533405 25.807709 -23.763083 35.922598 1.613136 -0.723371 -10.558487 8.398653 -54.594536 
-0.403826 0.843549 1.683219 -8.502423 2.932766 18.814701 0.000000 0.000000 0.000000 11.593265 -9.952491 -63.335655 0.913005 -1.328688 34.586924 2.869969 2.941753 -3.396802 0.000000 0.000000 0.000000 11.512927 13.041851 -50.278631 6.508622 -1.282800 59.999097 -7.501769 -9.825585 -13.080609 0.000000 0.000000 0.000000 -10.576237 2.256479 48.877775 0.802046 -0.338621 -5.431124 10.491467 8.492204 10.040339 0.000000 0.000000 0.000000 -9.449746 5.058438 3.830978 0.000000 0.000000 0.000000 32.537538 -13.544321 -3.975573 -29.434021 -2.865723 -18.121403 -10.224535 -29.996093 -57.663488 0.000000 0.000000 0.000000 -44.266534 24.425567 -21.282564 36.862329 1.815404 -1.136465 -11.614973 7.650407 -56.449009 
-0.406095 0.834951 1.726240 -7.972444 2.833208 17.556453 0.000000 0.000000 0.000000 10.802893 -10.715626 -64.991764 0.302000 -1.503452 44.889305 3.696582 2.146509 -5.320775 0.000000 0.000000 0.000000 9.225106 12.680749 -52.315284 9.752216 -4.576324 69.534094 -4.442127 -8.110854 -5.323137 0.000000 0.000000 0.000000 -11.660177 3.087736 52.247628 1.460907 -0.458674 -6.792352 10.611653 8.360595 9.703236 0.000000 0.000000 0.000000 -9.453743 5.056585 3.766774 0.000000 0.000000 0.000000 32.071004 -13.671770 -4.192210 -28.443245 -2.749711 -17.834639 -9.595268 -31.473300 -61.082983 0.000000 0.000000 0.000000 -43.629537 24.570184 -21.227562 37.453756 1.119173 0.331568 -14.377248 5.678692 -62.194394 
-0.407870 0.832373 1.763597 -9.305726 3.342880 16.925935 0.000000 0.000000 0.000000 12.068763 -10.177335 -65.022634 -1.262611 -0.896582 50.540370 6.214379 2.949053 -9.510068 0.000000 0.000000 0.000000 8.319088 13.382872 -56.663479 10.909113 -6.505890 76.646070 -0.454370 -5.440262 3.121821 0.000000 0.000000 0.000000 -11.255380 2.594282 53.792995 1.944474 -0.495087 -6.353341 10.685746 9.278568 10.029354 0.000000 0.000000 0.000000 -10.030829 5.375682 4.312377 0.000000 0.000000 0.000000 31.337512 -13.211307 -3.639023 -28.086102 -2.825159 -18.111927 -8.935523 -31.896191 -63.010784 0.000000 0.000000 0.000000 -43.986097 24.611925 -21.624052 37.035802 -0.027278 2.732939 -16.447261 4.932468 -69.849866 
-0.414249 0.839062 1.799447 -11.112120 3.093101 15.799593 0.000000 0.000000 0.000000 14.116315 -8.661787 -62.406973 -2.763648 0.006880 52.710357 7.541880 3.426147 -11.798882 0.000000 0.000000 0.000000 9.613424 14.728355 -58.900323 9.431491 -4.790509 77.092479 -2.362373 -9.990318 2.210991 0.000000 0.000000 0.000000 -11.872065 3.199758 56.228115 2.354197 -0.566133 -7.565639 11.700787 10.481044 11.705323 0.000000 0.000000 0.000000 -10.623572 5.656820 3.637697 0.000000 0.000000 0.000000 30.972311 -11.447694 -1.745453 -27.997858 -3.065150 -19.095410 -8.828214 -32.262067 -63.731433 0.000000 0.000000 0.000000 -44.131602 23.919480 -21.173473 36.435617 -1.078672 4.876674 -16.641221 7.289757 -76.570689 
-0.417216 0.842844 1.830781 -11.970530 2.760920 15.996017 0.000000 0.000000 0.000000 15.034798 -7.895059 -60.921693 -3.299936 0.410570 54.034716 8.596574 4.106279 -13.531447 0.000000 0.000000 0.000000 7.933134 15.018530 -62.564414 7.837190 -2.759259 71.129952 -4.805633 -14.508630 -0.492622 0.000000 0.000000 0.000000 -11.108832 2.686606 57.233847 1.735066 -0.517452 -8.021186 11.371544 10.598206 11.937764 0.000000 0.000000 0.000000 -10.777739 5.730778 3.330382 0.000000 0.000000 0.000000 31.345198 -10.672005 -0.952281 -28.226047 -3.159292 -19.424834 -8.740925 -32.104728 -63.669903 0.000000 0.000000 0.000000 -43.566513 23.478024 -20.457759 36.549076 -1.862099 6.450652 -16.941276 8.865694 -81.208626 
